<svg xmlns="http://www.w3.org/2000/svg" viewBox="0 0 21 21" height="21" width="21"><title>america-football-11.svg</title><rect fill="none" x="0" y="0" width="21" height="21"></rect><rect x="1" y="1" rx="10" ry="10" width="19" height="19" stroke="#ffffff" style="stroke-linejoin:round;stroke-miterlimit:4;" fill="#ffffff" stroke-width="1"></rect><rect x="1" y="1" width="19" height="19" rx="10" ry="10" fill="#fc1919"></rect><path fill="#9c7070" transform="translate(5 5)" d="M5.53,2C2.47,2,1,5.5,1,5.5S2.47,9,5.53,9S10,5.5,10,5.5S8.6,2,5.53,2z M7,6H4C3.7239,6,3.5,5.7761,3.5,5.5S3.7239,5,4,5h3
	c0.2761,0,0.5,0.2239,0.5,0.5S7.2761,6,7,6z" style="stroke-linejoin:round;stroke-miterlimit:4;" stroke="#9c7070" stroke-width="1"></path><path fill="#ffffff" transform="translate(5 5)" d="M5.53,2C2.47,2,1,5.5,1,5.5S2.47,9,5.53,9S10,5.5,10,5.5S8.6,2,5.53,2z M7,6H4C3.7239,6,3.5,5.7761,3.5,5.5S3.7239,5,4,5h3
	c0.2761,0,0.5,0.2239,0.5,0.5S7.2761,6,7,6z"></path></svg>