<svg xmlns="http://www.w3.org/2000/svg" viewBox="0 0 25 25" height="25" width="25"><title>blood-bank-15.svg</title><rect fill="none" x="0" y="0" width="25" height="25"></rect><rect x="1" y="1" rx="12" ry="12" width="23" height="23" stroke="#ffffff" style="stroke-linejoin:round;stroke-miterlimit:4;" fill="#ffffff" stroke-width="1"></rect><rect x="1" y="1" width="23" height="23" rx="12" ry="12" fill="#fc1919"></rect><path fill="#9c7070" transform="translate(5 5)" d="M11.2,7.1L11.2,7.1L7.5,2L3.8,7.1h0C3.3,7.8,3,8.7,3,9.6C3,12,5,14,7.5,14c0,0,0,0,0,0C10,14,12,12,12,9.6c0,0,0,0,0,0
	C12,8.7,11.7,7.8,11.2,7.1z M10,10H8v2H7v-2H5V9h2V7h1v2h2V10z" style="stroke-linejoin:round;stroke-miterlimit:4;" stroke="#9c7070" stroke-width="1"></path><path fill="#ffffff" transform="translate(5 5)" d="M11.2,7.1L11.2,7.1L7.5,2L3.8,7.1h0C3.3,7.8,3,8.7,3,9.6C3,12,5,14,7.5,14c0,0,0,0,0,0C10,14,12,12,12,9.6c0,0,0,0,0,0
	C12,8.7,11.7,7.8,11.2,7.1z M10,10H8v2H7v-2H5V9h2V7h1v2h2V10z"></path></svg>