<svg xmlns="http://www.w3.org/2000/svg" viewBox="0 0 21 21" height="21" width="21"><title>building-alt1-11.svg</title><rect fill="none" x="0" y="0" width="21" height="21"></rect><rect x="1" y="1" rx="10" ry="10" width="19" height="19" stroke="#ffffff" style="stroke-linejoin:round;stroke-miterlimit:4;" fill="#ffffff" stroke-width="1"></rect><rect x="1" y="1" width="19" height="19" rx="10" ry="10" fill="#fc1919"></rect><path fill="#9c7070" transform="translate(5 5)" d="M8,9.5v-5C8,4.2,7.8,4,7.5,4H6V1L3,2v7.5H2V10h7V9.5H8z M5,9.5H4V3h1V9.5z" style="stroke-linejoin:round;stroke-miterlimit:4;" stroke="#9c7070" stroke-width="1"></path><path fill="#ffffff" transform="translate(5 5)" d="M8,9.5v-5C8,4.2,7.8,4,7.5,4H6V1L3,2v7.5H2V10h7V9.5H8z M5,9.5H4V3h1V9.5z"></path></svg>