<svg xmlns="http://www.w3.org/2000/svg" viewBox="0 0 25 25" height="25" width="25"><title>campsite-15.svg</title><rect fill="none" x="0" y="0" width="25" height="25"></rect><rect x="1" y="1" rx="12" ry="12" width="23" height="23" stroke="#ffffff" style="stroke-linejoin:round;stroke-miterlimit:4;" fill="#ffffff" stroke-width="1"></rect><rect x="1" y="1" width="23" height="23" rx="12" ry="12" fill="#fc1919"></rect><path fill="#9c7070" transform="translate(5 5)" d="M7,1.5
	l-5.5,9H1c-1,0-1,1-1,1v1c0,0,0,1,1,1h13c1,0,1-1,1-1v-1c0,0,0-1-1-1h-0.5L8,1.5C7.8,1.1,7.2,1.1,7,1.5z M7.5,5l3.2,5.5H4.2L7.5,5z" style="stroke-linejoin:round;stroke-miterlimit:4;" stroke="#9c7070" stroke-width="1"></path><path fill="#ffffff" transform="translate(5 5)" d="M7,1.5
	l-5.5,9H1c-1,0-1,1-1,1v1c0,0,0,1,1,1h13c1,0,1-1,1-1v-1c0,0,0-1-1-1h-0.5L8,1.5C7.8,1.1,7.2,1.1,7,1.5z M7.5,5l3.2,5.5H4.2L7.5,5z"></path></svg>