<svg xmlns="http://www.w3.org/2000/svg" viewBox="0 0 25 25" height="25" width="25"><title>circle-15.svg</title><rect fill="none" x="0" y="0" width="25" height="25"></rect><rect x="1" y="1" rx="12" ry="12" width="23" height="23" stroke="#ffffff" style="stroke-linejoin:round;stroke-miterlimit:4;" fill="#ffffff" stroke-width="1"></rect><rect x="1" y="1" width="23" height="23" rx="12" ry="12" fill="#fc1919"></rect><path fill="#9c7070" transform="translate(5 5)" d="M14,7.5c0,3.5899-2.9101,6.5-6.5,6.5S1,11.0899,1,7.5S3.9101,1,7.5,1S14,3.9101,14,7.5z" style="stroke-linejoin:round;stroke-miterlimit:4;" stroke="#9c7070" stroke-width="1"></path><path fill="#ffffff" transform="translate(5 5)" d="M14,7.5c0,3.5899-2.9101,6.5-6.5,6.5S1,11.0899,1,7.5S3.9101,1,7.5,1S14,3.9101,14,7.5z"></path></svg>