<svg xmlns="http://www.w3.org/2000/svg" viewBox="0 0 21 21" height="21" width="21"><title>circle-11.svg</title><rect fill="none" x="0" y="0" width="21" height="21"></rect><rect x="1" y="1" rx="10" ry="10" width="19" height="19" stroke="#ffffff" style="stroke-linejoin:round;stroke-miterlimit:4;" fill="#ffffff" stroke-width="1"></rect><rect x="1" y="1" width="19" height="19" rx="10" ry="10" fill="#fc1919"></rect><path fill="#9c7070" transform="translate(5 5)" d="M10,5.5C10,7.9853,7.9853,10,5.5,10S1,7.9853,1,5.5S3.0147,1,5.5,1S10,3.0147,10,5.5z" style="stroke-linejoin:round;stroke-miterlimit:4;" stroke="#9c7070" stroke-width="1"></path><path fill="#ffffff" transform="translate(5 5)" d="M10,5.5C10,7.9853,7.9853,10,5.5,10S1,7.9853,1,5.5S3.0147,1,5.5,1S10,3.0147,10,5.5z"></path></svg>