<svg xmlns="http://www.w3.org/2000/svg" viewBox="0 0 25 25" height="25" width="25"><title>commercial-15.svg</title><rect fill="none" x="0" y="0" width="25" height="25"></rect><rect x="1" y="1" rx="12" ry="12" width="23" height="23" stroke="#ffffff" style="stroke-linejoin:round;stroke-miterlimit:4;" fill="#ffffff" stroke-width="1"></rect><rect x="1" y="1" width="23" height="23" rx="12" ry="12" fill="#fc1919"></rect><path fill="#9c7070" transform="translate(5 5)" d="M14,7H1c0.0881-1.3829,0.427-2.7383,1-4h11C13.5731,4.2617,13.9119,5.6171,14,7z M3,8h9v6h-1V9H8v5H3V8z M4,11h3V9H4V11z" style="stroke-linejoin:round;stroke-miterlimit:4;" stroke="#9c7070" stroke-width="1"></path><path fill="#ffffff" transform="translate(5 5)" d="M14,7H1c0.0881-1.3829,0.427-2.7383,1-4h11C13.5731,4.2617,13.9119,5.6171,14,7z M3,8h9v6h-1V9H8v5H3V8z M4,11h3V9H4V11z"></path></svg>