<svg xmlns="http://www.w3.org/2000/svg" viewBox="0 0 21 21" height="21" width="21"><title>commercial-11.svg</title><rect fill="none" x="0" y="0" width="21" height="21"></rect><rect x="1" y="1" rx="10" ry="10" width="19" height="19" stroke="#ffffff" style="stroke-linejoin:round;stroke-miterlimit:4;" fill="#ffffff" stroke-width="1"></rect><rect x="1" y="1" width="19" height="19" rx="10" ry="10" fill="#fc1919"></rect><path fill="#9c7070" transform="translate(5 5)" d="M0,5c-0.0224-1.0854,0.3309-2.1451,1-3h9c0.6691,0.8549,1.0224,1.9146,1,3H0z M2,6v5h4V7h2v4h1V6H2z M5,9H3V7h2V9z" style="stroke-linejoin:round;stroke-miterlimit:4;" stroke="#9c7070" stroke-width="1"></path><path fill="#ffffff" transform="translate(5 5)" d="M0,5c-0.0224-1.0854,0.3309-2.1451,1-3h9c0.6691,0.8549,1.0224,1.9146,1,3H0z M2,6v5h4V7h2v4h1V6H2z M5,9H3V7h2V9z"></path></svg>