<svg xmlns="http://www.w3.org/2000/svg" viewBox="0 0 21 21" height="21" width="21"><title>drinking-water-11.svg</title><rect fill="none" x="0" y="0" width="21" height="21"></rect><rect x="1" y="1" rx="10" ry="10" width="19" height="19" stroke="#ffffff" style="stroke-linejoin:round;stroke-miterlimit:4;" fill="#ffffff" stroke-width="1"></rect><rect x="1" y="1" width="19" height="19" rx="10" ry="10" fill="#fc1919"></rect><path fill="#9c7070" transform="translate(5 5)" d="M5,11H3a0.51,0.51,0,0,1-.5-0.4L1,5.6A0.5,0.5,0,0,1,1.5,5h5A0.5,0.5,0,0,1,7,5.6l-1.49,5A0.51,0.51,0,0,1,5,11ZM2.76,8L5.22,8,5.89,6H2.11Z" style="stroke-linejoin:round;stroke-miterlimit:4;" stroke="#9c7070" stroke-width="1"></path><path fill="#9c7070" transform="translate(5 5)" d="M4.5,0h0A1.5,1.5,0,0,0,3,1.51v2a0.5,0.5,0,0,0,.5.5h1A0.5,0.5,0,0,0,5,3.5v-1A0.5,0.5,0,0,1,5.5,2H10V0H4.5Z" style="stroke-linejoin:round;stroke-miterlimit:4;" stroke="#9c7070" stroke-width="1"></path><path fill="#ffffff" transform="translate(5 5)" d="M5,11H3a0.51,0.51,0,0,1-.5-0.4L1,5.6A0.5,0.5,0,0,1,1.5,5h5A0.5,0.5,0,0,1,7,5.6l-1.49,5A0.51,0.51,0,0,1,5,11ZM2.76,8L5.22,8,5.89,6H2.11Z"></path><path fill="#ffffff" transform="translate(5 5)" d="M4.5,0h0A1.5,1.5,0,0,0,3,1.51v2a0.5,0.5,0,0,0,.5.5h1A0.5,0.5,0,0,0,5,3.5v-1A0.5,0.5,0,0,1,5.5,2H10V0H4.5Z"></path></svg>