<svg xmlns="http://www.w3.org/2000/svg" viewBox="0 0 25 25" height="25" width="25"><title>entrance-alt1-15.svg</title><rect fill="none" x="0" y="0" width="25" height="25"></rect><rect x="1" y="1" rx="12" ry="12" width="23" height="23" stroke="#ffffff" style="stroke-linejoin:round;stroke-miterlimit:4;" fill="#ffffff" stroke-width="1"></rect><rect x="1" y="1" width="23" height="23" rx="12" ry="12" fill="#fc1919"></rect><path fill="#9c7070" transform="translate(5 5)" d="M6.554,9.639a.5.5,0,0,0,.707.707L9.928,7.669a.25.25,0,0,0,0-.354h0L7.261,4.639a.5.5,0,0,0-.707.707L8.2,7H1.5a.5.5,0,0,0,0,1H8.2ZM12,1H5.5a.5.5,0,0,0,0,1h6a.5.5,0,0,1,.5.5v10a.5.5,0,0,1-.5.5H5.25a.5.5,0,0,0,0,1H12a1,1,0,0,0,1-1V2A1,1,0,0,0,12,1Z" style="stroke-linejoin:round;stroke-miterlimit:4;" stroke="#9c7070" stroke-width="1"></path><path fill="#ffffff" transform="translate(5 5)" d="M6.554,9.639a.5.5,0,0,0,.707.707L9.928,7.669a.25.25,0,0,0,0-.354h0L7.261,4.639a.5.5,0,0,0-.707.707L8.2,7H1.5a.5.5,0,0,0,0,1H8.2ZM12,1H5.5a.5.5,0,0,0,0,1h6a.5.5,0,0,1,.5.5v10a.5.5,0,0,1-.5.5H5.25a.5.5,0,0,0,0,1H12a1,1,0,0,0,1-1V2A1,1,0,0,0,12,1Z"></path></svg>