<svg xmlns="http://www.w3.org/2000/svg" viewBox="0 0 21 21" height="21" width="21"><title>fence-11.svg</title><rect fill="none" x="0" y="0" width="21" height="21"></rect><rect x="1" y="1" rx="10" ry="10" width="19" height="19" stroke="#ffffff" style="stroke-linejoin:round;stroke-miterlimit:4;" fill="#ffffff" stroke-width="1"></rect><rect x="1" y="1" width="19" height="19" rx="10" ry="10" fill="#fc1919"></rect><path fill="#9c7070" transform="translate(5 5)" d="M9.5,7H9V5h.5a.5.5,0,0,0,0-1H9V3l-.278-.555a.254.254,0,0,0-.443,0L8,3V4H7V3l-.278-.555a.254.254,0,0,0-.443,0L6,3V4H5V3l-.278-.555a.254.254,0,0,0-.443,0L4,3V4H3V3l-.278-.555a.254.254,0,0,0-.443,0L2,3V4H1.5a.5.5,0,0,0,0,1H2V7H1.5a.5.5,0,0,0,0,1H2v.5a.5.5,0,0,0,1,0V8H4v.5a.5.5,0,0,0,1,0V8H6v.5a.5.5,0,0,0,1,0V8H8v.5a.5.5,0,0,0,1,0V8h.5a.5.5,0,0,0,0-1ZM3,7V5H4V7ZM5,7V5H6V7ZM7,7V5H8V7Z" style="stroke-linejoin:round;stroke-miterlimit:4;" stroke="#9c7070" stroke-width="1"></path><path fill="#ffffff" transform="translate(5 5)" d="M9.5,7H9V5h.5a.5.5,0,0,0,0-1H9V3l-.278-.555a.254.254,0,0,0-.443,0L8,3V4H7V3l-.278-.555a.254.254,0,0,0-.443,0L6,3V4H5V3l-.278-.555a.254.254,0,0,0-.443,0L4,3V4H3V3l-.278-.555a.254.254,0,0,0-.443,0L2,3V4H1.5a.5.5,0,0,0,0,1H2V7H1.5a.5.5,0,0,0,0,1H2v.5a.5.5,0,0,0,1,0V8H4v.5a.5.5,0,0,0,1,0V8H6v.5a.5.5,0,0,0,1,0V8H8v.5a.5.5,0,0,0,1,0V8h.5a.5.5,0,0,0,0-1ZM3,7V5H4V7ZM5,7V5H6V7ZM7,7V5H8V7Z"></path></svg>