<svg xmlns="http://www.w3.org/2000/svg" viewBox="0 0 25 25" height="25" width="25"><title>heart-15.svg</title><rect fill="none" x="0" y="0" width="25" height="25"></rect><rect x="1" y="1" rx="12" ry="12" width="23" height="23" stroke="#ffffff" style="stroke-linejoin:round;stroke-miterlimit:4;" fill="#ffffff" stroke-width="1"></rect><rect x="1" y="1" width="23" height="23" rx="12" ry="12" fill="#fc1919"></rect><path fill="#9c7070" transform="translate(5 5)" d="M13.91,6.75c-1.17,2.25-4.3,5.31-6.07,6.94c-0.1903,0.1718-0.4797,0.1718-0.67,0C5.39,12.06,2.26,9,1.09,6.75
	C-1.48,1.8,5-1.5,7.5,3.45C10-1.5,16.48,1.8,13.91,6.75z" style="stroke-linejoin:round;stroke-miterlimit:4;" stroke="#9c7070" stroke-width="1"></path><path fill="#ffffff" transform="translate(5 5)" d="M13.91,6.75c-1.17,2.25-4.3,5.31-6.07,6.94c-0.1903,0.1718-0.4797,0.1718-0.67,0C5.39,12.06,2.26,9,1.09,6.75
	C-1.48,1.8,5-1.5,7.5,3.45C10-1.5,16.48,1.8,13.91,6.75z"></path></svg>