<svg xmlns="http://www.w3.org/2000/svg" viewBox="0 0 25 25" height="25" width="25"><title>home-15.svg</title><rect fill="none" x="0" y="0" width="25" height="25"></rect><rect x="1" y="1" rx="12" ry="12" width="23" height="23" stroke="#ffffff" style="stroke-linejoin:round;stroke-miterlimit:4;" fill="#ffffff" stroke-width="1"></rect><rect x="1" y="1" width="23" height="23" rx="12" ry="12" fill="#fc1919"></rect><path fill="#9c7070" transform="translate(5 5)" d="M2,13.75a.25.25,0,0,0,.25.25H6V11H9v3h3.75a.25.25,0,0,0,.25-.25V8H2ZM13.932,6.579,13,5.76V2a1,1,0,0,0-2,0V4L7.682,1.09a.25.25,0,0,0-.353-.011l-.011.011L1.068,6.554a.25.25,0,0,0,.179.421L3,7H13.749a.25.25,0,0,0,.183-.421Z" style="stroke-linejoin:round;stroke-miterlimit:4;" stroke="#9c7070" stroke-width="1"></path><path fill="#ffffff" transform="translate(5 5)" d="M2,13.75a.25.25,0,0,0,.25.25H6V11H9v3h3.75a.25.25,0,0,0,.25-.25V8H2ZM13.932,6.579,13,5.76V2a1,1,0,0,0-2,0V4L7.682,1.09a.25.25,0,0,0-.353-.011l-.011.011L1.068,6.554a.25.25,0,0,0,.179.421L3,7H13.749a.25.25,0,0,0,.183-.421Z"></path></svg>