<svg xmlns="http://www.w3.org/2000/svg" viewBox="0 0 21 21" height="21" width="21"><title>home-11.svg</title><rect fill="none" x="0" y="0" width="21" height="21"></rect><rect x="1" y="1" rx="10" ry="10" width="19" height="19" stroke="#ffffff" style="stroke-linejoin:round;stroke-miterlimit:4;" fill="#ffffff" stroke-width="1"></rect><rect x="1" y="1" width="19" height="19" rx="10" ry="10" fill="#fc1919"></rect><path fill="#9c7070" transform="translate(5 5)" d="M10,4.75A.25.25,0,0,1,9.75,5H1.25A.25.25,0,0,1,1,4.75a.261.261,0,0,1,.08-.19L5.317,1.106l.016-.016a.248.248,0,0,1,.35.016L8,2.995V1.5a.5.5,0,0,1,1,0V3.81l.92.75A.261.261,0,0,1,10,4.75Zm-8,5a.248.248,0,0,0,.246.25H5V8H6v2H8.752A.248.248,0,0,0,9,9.752H9V6H2Z" style="stroke-linejoin:round;stroke-miterlimit:4;" stroke="#9c7070" stroke-width="1"></path><path fill="#ffffff" transform="translate(5 5)" d="M10,4.75A.25.25,0,0,1,9.75,5H1.25A.25.25,0,0,1,1,4.75a.261.261,0,0,1,.08-.19L5.317,1.106l.016-.016a.248.248,0,0,1,.35.016L8,2.995V1.5a.5.5,0,0,1,1,0V3.81l.92.75A.261.261,0,0,1,10,4.75Zm-8,5a.248.248,0,0,0,.246.25H5V8H6v2H8.752A.248.248,0,0,0,9,9.752H9V6H2Z"></path></svg>