<svg xmlns="http://www.w3.org/2000/svg" viewBox="0 0 21 21" height="21" width="21"><title>industry-11.svg</title><rect fill="none" x="0" y="0" width="21" height="21"></rect><rect x="1" y="1" rx="10" ry="10" width="19" height="19" stroke="#ffffff" style="stroke-linejoin:round;stroke-miterlimit:4;" fill="#ffffff" stroke-width="1"></rect><rect x="1" y="1" width="19" height="19" rx="10" ry="10" fill="#fc1919"></rect><path fill="#9c7070" transform="translate(5 5)" d="M10,1v8H1V6l2.11-1.78C3.43,3.9,4,3.91,4,4.36V6l2.13-1.86c0.1854-0.2047,0.5016-0.2203,0.7062-0.0349
	C6.9472,4.2056,7.0073,4.3505,7,4.5V8h2V1H10z" style="stroke-linejoin:round;stroke-miterlimit:4;" stroke="#9c7070" stroke-width="1"></path><path fill="#ffffff" transform="translate(5 5)" d="M10,1v8H1V6l2.11-1.78C3.43,3.9,4,3.91,4,4.36V6l2.13-1.86c0.1854-0.2047,0.5016-0.2203,0.7062-0.0349
	C6.9472,4.2056,7.0073,4.3505,7,4.5V8h2V1H10z"></path></svg>