<svg xmlns="http://www.w3.org/2000/svg" viewBox="0 0 25 25" height="25" width="25"><title>landmark-15.svg</title><rect fill="none" x="0" y="0" width="25" height="25"></rect><rect x="1" y="1" rx="12" ry="12" width="23" height="23" stroke="#ffffff" style="stroke-linejoin:round;stroke-miterlimit:4;" fill="#ffffff" stroke-width="1"></rect><rect x="1" y="1" width="23" height="23" rx="12" ry="12" fill="#fc1919"></rect><path fill="#9c7070" transform="translate(5 5)" d="M12.5,12H12v-0.5c0-0.3-0.2-0.5-0.5-0.5H11V6h1l1-2c-1,0.1-2,0.1-3,0C9.2,3.4,8.6,2.8,8,2V1.5C8,1.2,7.8,1,7.5,1
	S7,1.2,7,1.5V2C6.4,2.8,5.8,3.4,5,4C4,4.1,3,4.1,2,4l1,2h1v5c0,0-0.5,0-0.5,0C3.2,11,3,11.2,3,11.5V12H2.5C2.2,12,2,12.2,2,12.5V13
	h11v-0.5C13,12.2,12.8,12,12.5,12z M7,11H5V6h2V11z M10,11H8V6h2V11z" style="stroke-linejoin:round;stroke-miterlimit:4;" stroke="#9c7070" stroke-width="1"></path><path fill="#ffffff" transform="translate(5 5)" d="M12.5,12H12v-0.5c0-0.3-0.2-0.5-0.5-0.5H11V6h1l1-2c-1,0.1-2,0.1-3,0C9.2,3.4,8.6,2.8,8,2V1.5C8,1.2,7.8,1,7.5,1
	S7,1.2,7,1.5V2C6.4,2.8,5.8,3.4,5,4C4,4.1,3,4.1,2,4l1,2h1v5c0,0-0.5,0-0.5,0C3.2,11,3,11.2,3,11.5V12H2.5C2.2,12,2,12.2,2,12.5V13
	h11v-0.5C13,12.2,12.8,12,12.5,12z M7,11H5V6h2V11z M10,11H8V6h2V11z"></path></svg>