<svg xmlns="http://www.w3.org/2000/svg" viewBox="0 0 25 25" height="25" width="25"><title>laundry-15.svg</title><rect fill="none" x="0" y="0" width="25" height="25"></rect><rect x="1" y="1" rx="12" ry="12" width="23" height="23" stroke="#ffffff" style="stroke-linejoin:round;stroke-miterlimit:4;" fill="#ffffff" stroke-width="1"></rect><rect x="1" y="1" width="23" height="23" rx="12" ry="12" fill="#fc1919"></rect><path fill="#9c7070" transform="translate(5 5)" d="M8,1L6,3H3c0,0-1,0-1,1v9c0,1,1,1,1,1h9c0,0,1,0,1-1V2c0-1-1-1-1-1
	S8,1,8,1z M8.5,2h2C10.777,2,11,2.223,11,2.5S10.777,3,10.5,3h-2C8.223,3,8,2.777,8,2.5S8.223,2,8.5,2z M7.5,6
	c1.6569,0,3,1.3431,3,3s-1.3431,3-3,3s-3-1.3431-3-3S5.8431,6,7.5,6z" style="stroke-linejoin:round;stroke-miterlimit:4;" stroke="#9c7070" stroke-width="1"></path><path fill="#ffffff" transform="translate(5 5)" d="M8,1L6,3H3c0,0-1,0-1,1v9c0,1,1,1,1,1h9c0,0,1,0,1-1V2c0-1-1-1-1-1
	S8,1,8,1z M8.5,2h2C10.777,2,11,2.223,11,2.5S10.777,3,10.5,3h-2C8.223,3,8,2.777,8,2.5S8.223,2,8.5,2z M7.5,6
	c1.6569,0,3,1.3431,3,3s-1.3431,3-3,3s-3-1.3431-3-3S5.8431,6,7.5,6z"></path></svg>