<svg xmlns="http://www.w3.org/2000/svg" viewBox="0 0 25 25" height="25" width="25"><title>marker-stroked-15.svg</title><rect fill="none" x="0" y="0" width="25" height="25"></rect><rect x="1" y="1" rx="12" ry="12" width="23" height="23" stroke="#ffffff" style="stroke-linejoin:round;stroke-miterlimit:4;" fill="#ffffff" stroke-width="1"></rect><rect x="1" y="1" width="23" height="23" rx="12" ry="12" fill="#fc1919"></rect><path fill="#9c7070" transform="translate(5 5)" d="M7.5,14.941l-.4-.495c-.973-1.189-4.9-6.556-4.9-9.16A5.066,5.066,0,0,1,7.036,0q.222-.01.445,0a5.066,5.066,0,0,1,5.286,4.836q.01.225,0,.45c0,2.213-2.669,6.111-4.678,8.851ZM7.481.986a4.077,4.077,0,0,0-4.3,4.3c0,1.832,2.759,6.038,4.286,8.034,1.25-1.71,4.315-5.989,4.315-8.034a4.077,4.077,0,0,0-4.3-4.3Z" style="stroke-linejoin:round;stroke-miterlimit:4;" stroke="#9c7070" stroke-width="1"></path><path fill="#ffffff" transform="translate(5 5)" d="M7.5,14.941l-.4-.495c-.973-1.189-4.9-6.556-4.9-9.16A5.066,5.066,0,0,1,7.036,0q.222-.01.445,0a5.066,5.066,0,0,1,5.286,4.836q.01.225,0,.45c0,2.213-2.669,6.111-4.678,8.851ZM7.481.986a4.077,4.077,0,0,0-4.3,4.3c0,1.832,2.759,6.038,4.286,8.034,1.25-1.71,4.315-5.989,4.315-8.034a4.077,4.077,0,0,0-4.3-4.3Z"></path></svg>