<svg xmlns="http://www.w3.org/2000/svg" viewBox="0 0 21 21" height="21" width="21"><title>place-of-worship-11.svg</title><rect fill="none" x="0" y="0" width="21" height="21"></rect><rect x="1" y="1" rx="10" ry="10" width="19" height="19" stroke="#ffffff" style="stroke-linejoin:round;stroke-miterlimit:4;" fill="#ffffff" stroke-width="1"></rect><rect x="1" y="1" width="19" height="19" rx="10" ry="10" fill="#fc1919"></rect><path fill="#9c7070" transform="translate(5 5)" d="M5.52,0L4,2v1h3V2L5.52,0z M4,4L2,5v5h7V5L7,4H4z M11,5.5V10h-1V5.5C10,5.2239,10.2239,5,10.5,5S11,5.2239,11,5.5z M1,5.5
	V10H0V5.5C0,5.2239,0.2239,5,0.5,5S1,5.2239,1,5.5z" style="stroke-linejoin:round;stroke-miterlimit:4;" stroke="#9c7070" stroke-width="1"></path><path fill="#ffffff" transform="translate(5 5)" d="M5.52,0L4,2v1h3V2L5.52,0z M4,4L2,5v5h7V5L7,4H4z M11,5.5V10h-1V5.5C10,5.2239,10.2239,5,10.5,5S11,5.2239,11,5.5z M1,5.5
	V10H0V5.5C0,5.2239,0.2239,5,0.5,5S1,5.2239,1,5.5z"></path></svg>