<svg xmlns="http://www.w3.org/2000/svg" viewBox="0 0 25 25" height="25" width="25"><title>prison-15.svg</title><rect fill="none" x="0" y="0" width="25" height="25"></rect><rect x="1" y="1" rx="12" ry="12" width="23" height="23" stroke="#ffffff" style="stroke-linejoin:round;stroke-miterlimit:4;" fill="#ffffff" stroke-width="1"></rect><rect x="1" y="1" width="23" height="23" rx="12" ry="12" fill="#fc1919"></rect><path fill="#9c7070" transform="translate(5 5)" d="M3.5,1v13H12V1H3.5z M9.5,2H11v3.5H9.5V2z M4.5,2.0547H6V7H4.5V2.0547z M7,2.0547h1.5V7H7V2.0547z M10.25,6.5
	C10.6642,6.5,11,6.8358,11,7.25S10.6642,8,10.25,8l0,0C9.8358,8,9.5,7.6642,9.5,7.25l0,0C9.5,6.8358,9.8358,6.5,10.25,6.5z M7,8
	h1.4727L8.5,13H7.0273L7,8z M4.5,8.166H6V13H4.5V8.166z M9.5,9H11v4H9.5V9z" style="stroke-linejoin:round;stroke-miterlimit:4;" stroke="#9c7070" stroke-width="1"></path><path fill="#ffffff" transform="translate(5 5)" d="M3.5,1v13H12V1H3.5z M9.5,2H11v3.5H9.5V2z M4.5,2.0547H6V7H4.5V2.0547z M7,2.0547h1.5V7H7V2.0547z M10.25,6.5
	C10.6642,6.5,11,6.8358,11,7.25S10.6642,8,10.25,8l0,0C9.8358,8,9.5,7.6642,9.5,7.25l0,0C9.5,6.8358,9.8358,6.5,10.25,6.5z M7,8
	h1.4727L8.5,13H7.0273L7,8z M4.5,8.166H6V13H4.5V8.166z M9.5,9H11v4H9.5V9z"></path></svg>