<svg xmlns="http://www.w3.org/2000/svg" viewBox="0 0 21 21" height="21" width="21"><title>ranger-station-11.svg</title><rect fill="none" x="0" y="0" width="21" height="21"></rect><rect x="1" y="1" rx="10" ry="10" width="19" height="19" stroke="#ffffff" style="stroke-linejoin:round;stroke-miterlimit:4;" fill="#ffffff" stroke-width="1"></rect><rect x="1" y="1" width="19" height="19" rx="10" ry="10" fill="#fc1919"></rect><path fill="#9c7070" transform="translate(5 5)" d="M6.334,0L5,1v3L1,6.0547V10h3V7
	h3v3h3V6.0547L6,4V2.25L6.334,2l1.332,1L9,2V0L7.666,1L6.334,0z" style="stroke-linejoin:round;stroke-miterlimit:4;" stroke="#9c7070" stroke-width="1"></path><path fill="#ffffff" transform="translate(5 5)" d="M6.334,0L5,1v3L1,6.0547V10h3V7
	h3v3h3V6.0547L6,4V2.25L6.334,2l1.332,1L9,2V0L7.666,1L6.334,0z"></path></svg>