<svg xmlns="http://www.w3.org/2000/svg" viewBox="0 0 25 25" height="25" width="25"><title>ranger-station-15.svg</title><rect fill="none" x="0" y="0" width="25" height="25"></rect><rect x="1" y="1" rx="12" ry="12" width="23" height="23" stroke="#ffffff" style="stroke-linejoin:round;stroke-miterlimit:4;" fill="#ffffff" stroke-width="1"></rect><rect x="1" y="1" width="23" height="23" rx="12" ry="12" fill="#fc1919"></rect><path fill="#9c7070" transform="translate(5 5)" d="M9,0.5l-2,1v3.7734L2,8v6h4v-4h3
	v4h4V8L8,5.2734V4l1-0.5l2,1l2-1v-3l-2,1L9,0.5z" style="stroke-linejoin:round;stroke-miterlimit:4;" stroke="#9c7070" stroke-width="1"></path><path fill="#ffffff" transform="translate(5 5)" d="M9,0.5l-2,1v3.7734L2,8v6h4v-4h3
	v4h4V8L8,5.2734V4l1-0.5l2,1l2-1v-3l-2,1L9,0.5z"></path></svg>