<svg xmlns="http://www.w3.org/2000/svg" viewBox="0 0 25 25" height="25" width="25"><title>religious-jewish-15.svg</title><rect fill="none" x="0" y="0" width="25" height="25"></rect><rect x="1" y="1" rx="12" ry="12" width="23" height="23" stroke="#ffffff" style="stroke-linejoin:round;stroke-miterlimit:4;" fill="#ffffff" stroke-width="1"></rect><rect x="1" y="1" width="23" height="23" rx="12" ry="12" fill="#fc1919"></rect><path fill="#9c7070" transform="translate(5 5)" d="M15,12H9.78L7.5,15l-2.26-3H0l2.7-4L0,4h5.3l2.2-4l2.34,4H15l-2.56,4L15,12z" style="stroke-linejoin:round;stroke-miterlimit:4;" stroke="#9c7070" stroke-width="1"></path><path fill="#ffffff" transform="translate(5 5)" d="M15,12H9.78L7.5,15l-2.26-3H0l2.7-4L0,4h5.3l2.2-4l2.34,4H15l-2.56,4L15,12z"></path></svg>