<svg xmlns="http://www.w3.org/2000/svg" viewBox="0 0 25 25" height="25" width="25"><title>religious-christian-15.svg</title><rect fill="none" x="0" y="0" width="25" height="25"></rect><rect x="1" y="1" rx="12" ry="12" width="23" height="23" stroke="#ffffff" style="stroke-linejoin:round;stroke-miterlimit:4;" fill="#ffffff" stroke-width="1"></rect><rect x="1" y="1" width="23" height="23" rx="12" ry="12" fill="#fc1919"></rect><path fill="#9c7070" transform="translate(5 5)" d="M6,0.9552V4H3v3h3v8h3V7h3V4H9V1
	c0-1-0.9776-1-0.9776-1H6.9887C6.9887,0,6,0,6,0.9552z" style="stroke-linejoin:round;stroke-miterlimit:4;" stroke="#9c7070" stroke-width="1"></path><path fill="#ffffff" transform="translate(5 5)" d="M6,0.9552V4H3v3h3v8h3V7h3V4H9V1
	c0-1-0.9776-1-0.9776-1H6.9887C6.9887,0,6,0,6,0.9552z"></path></svg>