<svg xmlns="http://www.w3.org/2000/svg" viewBox="0 0 21 21" height="21" width="21"><title>religious-jewish-11.svg</title><rect fill="none" x="0" y="0" width="21" height="21"></rect><rect x="1" y="1" rx="10" ry="10" width="19" height="19" stroke="#ffffff" style="stroke-linejoin:round;stroke-miterlimit:4;" fill="#ffffff" stroke-width="1"></rect><rect x="1" y="1" width="19" height="19" rx="10" ry="10" fill="#fc1919"></rect><path fill="#9c7070" transform="translate(5 5)" d="M11,8H7.1l-1.6,3L3.9,8H0l1.95-2.5L0,3h3.9l1.6-3l1.6,3H11L9.05,5.5L11,8z" style="stroke-linejoin:round;stroke-miterlimit:4;" stroke="#9c7070" stroke-width="1"></path><path fill="#ffffff" transform="translate(5 5)" d="M11,8H7.1l-1.6,3L3.9,8H0l1.95-2.5L0,3h3.9l1.6-3l1.6,3H11L9.05,5.5L11,8z"></path></svg>