<svg xmlns="http://www.w3.org/2000/svg" viewBox="0 0 21 21" height="21" width="21"><title>roadblock-11.svg</title><rect fill="none" x="0" y="0" width="21" height="21"></rect><rect x="1" y="1" rx="10" ry="10" width="19" height="19" stroke="#ffffff" style="stroke-linejoin:round;stroke-miterlimit:4;" fill="#ffffff" stroke-width="1"></rect><rect x="1" y="1" width="19" height="19" rx="10" ry="10" fill="#fc1919"></rect><path fill="#9c7070" transform="translate(5 5)" d="M5.5,0C2.4624,0,0,2.4624,0,5.5S2.4624,11,5.5,11S11,8.5376,11,5.5S8.5376,0,5.5,0z M2,4.5h7v2H2V4.5z" style="stroke-linejoin:round;stroke-miterlimit:4;" stroke="#9c7070" stroke-width="1"></path><path fill="#ffffff" transform="translate(5 5)" d="M5.5,0C2.4624,0,0,2.4624,0,5.5S2.4624,11,5.5,11S11,8.5376,11,5.5S8.5376,0,5.5,0z M2,4.5h7v2H2V4.5z"></path></svg>