<svg xmlns="http://www.w3.org/2000/svg" viewBox="0 0 21 21" height="21" width="21"><title>school-11.svg</title><rect fill="none" x="0" y="0" width="21" height="21"></rect><rect x="1" y="1" rx="10" ry="10" width="19" height="19" stroke="#ffffff" style="stroke-linejoin:round;stroke-miterlimit:4;" fill="#ffffff" stroke-width="1"></rect><rect x="1" y="1" width="19" height="19" rx="10" ry="10" fill="#fc1919"></rect><path fill="#9c7070" transform="translate(5 5)" d="M8.5,9V8H10V6H7.5V5H10V3H8.5V2H10V1H6v9h4V9H8.5z M4,7H1V1h3V7z M4,8l-1.5,2L1,8H4z" style="stroke-linejoin:round;stroke-miterlimit:4;" stroke="#9c7070" stroke-width="1"></path><path fill="#ffffff" transform="translate(5 5)" d="M8.5,9V8H10V6H7.5V5H10V3H8.5V2H10V1H6v9h4V9H8.5z M4,7H1V1h3V7z M4,8l-1.5,2L1,8H4z"></path></svg>