<svg xmlns="http://www.w3.org/2000/svg" viewBox="0 0 21 21" height="21" width="21"><title>square-stroked-11.svg</title><rect fill="none" x="0" y="0" width="21" height="21"></rect><rect x="1" y="1" rx="10" ry="10" width="19" height="19" stroke="#ffffff" style="stroke-linejoin:round;stroke-miterlimit:4;" fill="#ffffff" stroke-width="1"></rect><rect x="1" y="1" width="19" height="19" rx="10" ry="10" fill="#fc1919"></rect><path fill="#9c7070" transform="translate(5 5)" d="M9.19,1H1.81C1.3626,1,1,1.3626,1,1.81v7.38C1,9.6374,1.3626,10,1.81,10c0,0,0,0,0,0h7.38C9.6374,10,10,9.6374,10,9.19v0
	V1.81C10,1.3626,9.6374,1,9.19,1L9.19,1L9.19,1z M2,2h7v7H2V2z" style="stroke-linejoin:round;stroke-miterlimit:4;" stroke="#9c7070" stroke-width="1"></path><path fill="#ffffff" transform="translate(5 5)" d="M9.19,1H1.81C1.3626,1,1,1.3626,1,1.81v7.38C1,9.6374,1.3626,10,1.81,10c0,0,0,0,0,0h7.38C9.6374,10,10,9.6374,10,9.19v0
	V1.81C10,1.3626,9.6374,1,9.19,1L9.19,1L9.19,1z M2,2h7v7H2V2z"></path></svg>