<svg xmlns="http://www.w3.org/2000/svg" viewBox="0 0 21 21" height="21" width="21"><title>square-11.svg</title><rect fill="none" x="0" y="0" width="21" height="21"></rect><rect x="1" y="1" rx="10" ry="10" width="19" height="19" stroke="#ffffff" style="stroke-linejoin:round;stroke-miterlimit:4;" fill="#ffffff" stroke-width="1"></rect><rect x="1" y="1" width="19" height="19" rx="10" ry="10" fill="#fc1919"></rect><path fill="#9c7070" transform="translate(5 5)" d="M9,10H2c-0.5523,0-1-0.4477-1-1V2c0-0.5523,0.4477-1,1-1h7c0.5523,0,1,0.4477,1,1v7C10,9.5523,9.5523,10,9,10z" style="stroke-linejoin:round;stroke-miterlimit:4;" stroke="#9c7070" stroke-width="1"></path><path fill="#ffffff" transform="translate(5 5)" d="M9,10H2c-0.5523,0-1-0.4477-1-1V2c0-0.5523,0.4477-1,1-1h7c0.5523,0,1,0.4477,1,1v7C10,9.5523,9.5523,10,9,10z"></path></svg>