<svg xmlns="http://www.w3.org/2000/svg" viewBox="0 0 21 21" height="21" width="21"><title>star-stroked-11.svg</title><rect fill="none" x="0" y="0" width="21" height="21"></rect><rect x="1" y="1" rx="10" ry="10" width="19" height="19" stroke="#ffffff" style="stroke-linejoin:round;stroke-miterlimit:4;" fill="#ffffff" stroke-width="1"></rect><rect x="1" y="1" width="19" height="19" rx="10" ry="10" fill="#fc1919"></rect><path fill="#9c7070" transform="translate(5 5)" d="M5.5,2.69l0.59,1.47l0.25,0.63h1.81l-1,0.9l-0.5,0.44l0.18,0.63l0.56,1.69L6.07,7.53L5.5,7.12
	l-0.57,0.4L3.62,8.44l0.55-1.68l0.21-0.63L3.88,5.7l-1-0.9h1.78l0.25-0.63L5.5,2.69 M5.5,0L4,3.79H0.19l3,2.66L1.71,11L5.5,8.34
	L9.29,11L7.78,6.45l3-2.66H7L5.5,0L5.5,0z" style="stroke-linejoin:round;stroke-miterlimit:4;" stroke="#9c7070" stroke-width="1"></path><path fill="#ffffff" transform="translate(5 5)" d="M5.5,2.69l0.59,1.47l0.25,0.63h1.81l-1,0.9l-0.5,0.44l0.18,0.63l0.56,1.69L6.07,7.53L5.5,7.12
	l-0.57,0.4L3.62,8.44l0.55-1.68l0.21-0.63L3.88,5.7l-1-0.9h1.78l0.25-0.63L5.5,2.69 M5.5,0L4,3.79H0.19l3,2.66L1.71,11L5.5,8.34
	L9.29,11L7.78,6.45l3-2.66H7L5.5,0L5.5,0z"></path></svg>