<svg xmlns="http://www.w3.org/2000/svg" viewBox="0 0 25 25" height="25" width="25"><title>water-15.svg</title><rect fill="none" x="0" y="0" width="25" height="25"></rect><rect x="1" y="1" rx="12" ry="12" width="23" height="23" stroke="#ffffff" style="stroke-linejoin:round;stroke-miterlimit:4;" fill="#ffffff" stroke-width="1"></rect><rect x="1" y="1" width="23" height="23" rx="12" ry="12" fill="#fc1919"></rect><path fill="#9c7070" transform="translate(5 5)" d="M7.49,15C4.5288,14.827,2.1676,12.4615,2,9.5C2,6.6,6.25,1.66,7.49,0c1.24,1.66,5,6.59,5,9.49S10.17,15,7.49,15z" style="stroke-linejoin:round;stroke-miterlimit:4;" stroke="#9c7070" stroke-width="1"></path><path fill="#ffffff" transform="translate(5 5)" d="M7.49,15C4.5288,14.827,2.1676,12.4615,2,9.5C2,6.6,6.25,1.66,7.49,0c1.24,1.66,5,6.59,5,9.49S10.17,15,7.49,15z"></path></svg>